<svg width="172" height="35" viewBox="0 0 172 35" fill="none" xmlns="http://www.w3.org/2000/svg">
<path d="M0.0201875 34L11.5402 16.912L0.500188 0.399998H11.2042L17.1562 9.856L23.1562 0.399998H33.6202L22.5802 16.816L34.1002 34H23.3962L16.9642 23.872L10.4842 34H0.0201875Z" fill="white"/>
<path d="M48.5684 34.24L34.9364 0.399998H45.3524L52.9844 21.664L60.6164 0.399998H70.8404L57.2084 34.24H48.5684ZM74.0932 34V0.399998H101.117V8.32H83.3092V13.408H99.4372V20.752H83.3092V26.08H101.357V34H74.0932ZM106.109 34V0.399998H114.797L128.621 18.16V0.399998H137.837V34H129.677L115.325 15.568V34H106.109ZM152.004 34V8.56H141.924V0.399998H171.396V8.56H161.316V34H152.004Z" fill="#FCCD00"/>
</svg>
