<svg width="27" height="27" viewBox="0 0 27 27" fill="none" xmlns="http://www.w3.org/2000/svg">
    <path d="M21.375 4.5H19.125V3.375C19.125 3.07663 19.0065 2.79048 18.7955 2.5795C18.5845 2.36853 18.2984 2.25 18 2.25C17.7016 2.25 17.4155 2.36853 17.2045 2.5795C16.9935 2.79048 16.875 3.07663 16.875 3.375V4.5H10.125V3.375C10.125 3.07663 10.0065 2.79048 9.7955 2.5795C9.58452 2.36853 9.29837 2.25 9 2.25C8.70163 2.25 8.41548 2.36853 8.2045 2.5795C7.99353 2.79048 7.875 3.07663 7.875 3.375V4.5H5.625C4.72989 4.5 3.87145 4.85558 3.23851 5.48851C2.60558 6.12145 2.25 6.97989 2.25 7.875V21.375C2.25 22.2701 2.60558 23.1286 3.23851 23.7615C3.87145 24.3944 4.72989 24.75 5.625 24.75H21.375C22.2701 24.75 23.1286 24.3944 23.7615 23.7615C24.3944 23.1286 24.75 22.2701 24.75 21.375V7.875C24.75 6.97989 24.3944 6.12145 23.7615 5.48851C23.1286 4.85558 22.2701 4.5 21.375 4.5ZM22.5 21.375C22.5 21.6734 22.3815 21.9595 22.1705 22.1705C21.9595 22.3815 21.6734 22.5 21.375 22.5H5.625C5.32663 22.5 5.04048 22.3815 4.8295 22.1705C4.61853 21.9595 4.5 21.6734 4.5 21.375V13.5H22.5V21.375ZM22.5 11.25H4.5V7.875C4.5 7.57663 4.61853 7.29048 4.8295 7.0795C5.04048 6.86853 5.32663 6.75 5.625 6.75H7.875V7.875C7.875 8.17337 7.99353 8.45952 8.2045 8.6705C8.41548 8.88147 8.70163 9 9 9C9.29837 9 9.58452 8.88147 9.7955 8.6705C10.0065 8.45952 10.125 8.17337 10.125 7.875V6.75H16.875V7.875C16.875 8.17337 16.9935 8.45952 17.2045 8.6705C17.4155 8.88147 17.7016 9 18 9C18.2984 9 18.5845 8.88147 18.7955 8.6705C19.0065 8.45952 19.125 8.17337 19.125 7.875V6.75H21.375C21.6734 6.75 21.9595 6.86853 22.1705 7.0795C22.3815 7.29048 22.5 7.57663 22.5 7.875V11.25Z" fill="white"/>
</svg>