<svg width="27" height="27" viewBox="0 0 27 27" fill="none" xmlns="http://www.w3.org/2000/svg">
    <path d="M22.5001 9L15.7501 3.0825C15.1313 2.52905 14.3303 2.22308 13.5001 2.22308C12.6699 2.22308 11.8689 2.52905 11.2501 3.0825L4.50011 9C4.14277 9.31958 3.85762 9.71163 3.66364 10.15C3.46966 10.5884 3.3713 11.0631 3.37511 11.5425V21.375C3.37511 22.2701 3.73069 23.1285 4.36362 23.7615C4.99656 24.3944 5.855 24.75 6.75011 24.75H20.2501C21.1452 24.75 22.0037 24.3944 22.6366 23.7615C23.2695 23.1285 23.6251 22.2701 23.6251 21.375V11.5312C23.6273 11.0538 23.5282 10.5812 23.3343 10.1449C23.1403 9.70855 22.856 9.31833 22.5001 9ZM15.7501 22.5H11.2501V16.875C11.2501 16.5766 11.3686 16.2905 11.5796 16.0795C11.7906 15.8685 12.0767 15.75 12.3751 15.75H14.6251C14.9235 15.75 15.2096 15.8685 15.4206 16.0795C15.6316 16.2905 15.7501 16.5766 15.7501 16.875V22.5ZM21.3751 21.375C21.3751 21.6734 21.2566 21.9595 21.0456 22.1705C20.8346 22.3815 20.5485 22.5 20.2501 22.5H18.0001V16.875C18.0001 15.9799 17.6445 15.1214 17.0116 14.4885C16.3787 13.8556 15.5202 13.5 14.6251 13.5H12.3751C11.48 13.5 10.6216 13.8556 9.98862 14.4885C9.35569 15.1214 9.00011 15.9799 9.00011 16.875V22.5H6.75011C6.45174 22.5 6.16559 22.3815 5.95461 22.1705C5.74363 21.9595 5.62511 21.6734 5.62511 21.375V11.5312C5.62531 11.3715 5.65952 11.2137 5.72548 11.0682C5.79143 10.9227 5.8876 10.7929 6.00761 10.6875L12.7576 4.78125C12.9629 4.60089 13.2268 4.50142 13.5001 4.50142C13.7734 4.50142 14.0373 4.60089 14.2426 4.78125L20.9926 10.6875C21.1126 10.7929 21.2088 10.9227 21.2747 11.0682C21.3407 11.2137 21.3749 11.3715 21.3751 11.5312V21.375Z" fill="#FCCD00"/>
</svg>