<svg width="27" height="27" viewBox="0 0 27 27" fill="none" xmlns="http://www.w3.org/2000/svg">
    <path d="M22.6801 5.18625C21.4857 3.9915 19.9021 3.26511 18.2174 3.13918C16.5328 3.01324 14.8588 3.49612 13.5001 4.5C12.0687 3.43534 10.2871 2.95257 8.51398 3.14891C6.7409 3.34526 5.10806 4.20612 3.94429 5.55815C2.78051 6.91019 2.17224 8.65296 2.24197 10.4355C2.31169 12.2181 3.05424 13.908 4.32007 15.165L12.7013 23.5462C12.8059 23.6517 12.9303 23.7354 13.0674 23.7925C13.2045 23.8496 13.3516 23.879 13.5001 23.879C13.6486 23.879 13.7956 23.8496 13.9327 23.7925C14.0698 23.7354 14.1942 23.6517 14.2988 23.5462L22.6801 15.165C23.3356 14.5099 23.8555 13.7321 24.2103 12.876C24.5651 12.0199 24.7477 11.1023 24.7477 10.1756C24.7477 9.24892 24.5651 8.33131 24.2103 7.47521C23.8555 6.61911 23.3356 5.84131 22.6801 5.18625ZM21.0938 13.5787L13.5001 21.1612L5.90632 13.5787C5.23714 12.9068 4.78129 12.0522 4.59595 11.1221C4.41061 10.1921 4.50404 9.22802 4.86451 8.35086C5.22498 7.47371 5.83645 6.72254 6.6222 6.19157C7.40796 5.66061 8.33301 5.37349 9.28132 5.36625C10.5482 5.36935 11.7621 5.87512 12.6563 6.7725C12.7609 6.87794 12.8853 6.96163 13.0224 7.01875C13.1595 7.07586 13.3066 7.10527 13.4551 7.10527C13.6036 7.10527 13.7506 7.07586 13.8877 7.01875C14.0248 6.96163 14.1492 6.87794 14.2538 6.7725C15.1744 5.97474 16.3637 5.55653 17.581 5.60252C18.7984 5.64851 19.9527 6.15526 20.8105 7.02021C21.6683 7.88515 22.1655 9.04369 22.2014 10.2613C22.2372 11.479 21.8092 12.6648 21.0038 13.5787H21.0938Z" fill="white"/>
</svg>