<svg width="27" height="27" viewBox="0 0 27 27" fill="none" xmlns="http://www.w3.org/2000/svg">
    <path d="M13.5 2.25C7.29 2.25 2.25 7.29 2.25 13.5C2.25 19.71 7.29 24.75 13.5 24.75C19.71 24.75 24.75 19.71 24.75 13.5C24.75 7.29 19.71 2.25 13.5 2.25ZM7.95375 20.565C8.4375 19.5525 11.385 18.5625 13.5 18.5625C15.615 18.5625 18.5737 19.5525 19.0462 20.565C17.5163 21.78 15.5925 22.5 13.5 22.5C11.4075 22.5 9.48375 21.78 7.95375 20.565ZM20.655 18.9338C19.0463 16.9762 15.1425 16.3125 13.5 16.3125C11.8575 16.3125 7.95375 16.9762 6.345 18.9338C5.1975 17.4262 4.5 15.5475 4.5 13.5C4.5 8.53875 8.53875 4.5 13.5 4.5C18.4613 4.5 22.5 8.53875 22.5 13.5C22.5 15.5475 21.8025 17.4262 20.655 18.9338ZM13.5 6.75C11.3175 6.75 9.5625 8.505 9.5625 10.6875C9.5625 12.87 11.3175 14.625 13.5 14.625C15.6825 14.625 17.4375 12.87 17.4375 10.6875C17.4375 8.505 15.6825 6.75 13.5 6.75ZM13.5 12.375C12.5662 12.375 11.8125 11.6213 11.8125 10.6875C11.8125 9.75375 12.5662 9 13.5 9C14.4338 9 15.1875 9.75375 15.1875 10.6875C15.1875 11.6213 14.4338 12.375 13.5 12.375Z" fill="white"/>
</svg>